<mxfile host="app.diagrams.net" modified="2023-03-22T09:26:02.305Z" agent="5.0 (Macintosh; Intel Mac OS X 10_15_7) AppleWebKit/537.36 (KHTML, like Gecko) Chrome/111.0.0.0 Safari/537.36" etag="avfh4SlFOhb7SxXRAUyG" version="20.6.2" type="github">
  <diagram name="Page-1" id="0783ab3e-0a74-02c8-0abd-f7b4e66b4bec">
    <mxGraphModel dx="1188" dy="608" grid="1" gridSize="10" guides="1" tooltips="1" connect="1" arrows="1" fold="1" page="1" pageScale="1" pageWidth="850" pageHeight="1100" background="none" math="0" shadow="0">
      <root>
        <mxCell id="0" />
        <mxCell id="1" parent="0" />
        <mxCell id="XmwUmY_RfwaG3Vd6OwZ8-1" value="业务发起请求" style="rounded=1;whiteSpace=wrap;html=1;" vertex="1" parent="1">
          <mxGeometry x="360" y="80" width="120" height="40" as="geometry" />
        </mxCell>
        <mxCell id="XmwUmY_RfwaG3Vd6OwZ8-2" value="发起请求" style="rounded=1;whiteSpace=wrap;html=1;" vertex="1" parent="1">
          <mxGeometry x="360" y="320" width="120" height="40" as="geometry" />
        </mxCell>
        <mxCell id="XmwUmY_RfwaG3Vd6OwZ8-3" value="回调业务" style="rounded=1;whiteSpace=wrap;html=1;" vertex="1" parent="1">
          <mxGeometry x="360" y="760" width="120" height="40" as="geometry" />
        </mxCell>
        <mxCell id="XmwUmY_RfwaG3Vd6OwZ8-4" value="结束" style="rounded=1;whiteSpace=wrap;html=1;" vertex="1" parent="1">
          <mxGeometry x="360" y="440" width="120" height="40" as="geometry" />
        </mxCell>
        <mxCell id="XmwUmY_RfwaG3Vd6OwZ8-6" value="是否进入缓存逻辑" style="rhombus;whiteSpace=wrap;html=1;" vertex="1" parent="1">
          <mxGeometry x="360" y="180" width="120" height="80" as="geometry" />
        </mxCell>
        <mxCell id="XmwUmY_RfwaG3Vd6OwZ8-7" value="" style="endArrow=classic;html=1;rounded=0;exitX=1;exitY=0.5;exitDx=0;exitDy=0;entryX=0;entryY=0.5;entryDx=0;entryDy=0;" edge="1" parent="1" source="XmwUmY_RfwaG3Vd6OwZ8-6" target="XmwUmY_RfwaG3Vd6OwZ8-9">
          <mxGeometry width="50" height="50" relative="1" as="geometry">
            <mxPoint x="600" y="400" as="sourcePoint" />
            <mxPoint x="610.1389784391063" y="212.72095552549524" as="targetPoint" />
          </mxGeometry>
        </mxCell>
        <mxCell id="XmwUmY_RfwaG3Vd6OwZ8-9" value="YES/NO" style="rhombus;whiteSpace=wrap;html=1;" vertex="1" parent="1">
          <mxGeometry x="620" y="180" width="80" height="80" as="geometry" />
        </mxCell>
        <mxCell id="XmwUmY_RfwaG3Vd6OwZ8-10" value="&lt;h1&gt;是否标记为重复请求&lt;/h1&gt;&lt;p&gt;&amp;nbsp;1. 取到了缓存的数据（之前请求成功过才会有）&lt;/p&gt;&lt;p&gt;&amp;nbsp;2. 两次请求的时间差小于设置的默认值&lt;/p&gt;&lt;p&gt;&amp;nbsp;3. 两次参数相等&lt;/p&gt;" style="text;html=1;strokeColor=none;fillColor=none;spacing=5;spacingTop=-20;whiteSpace=wrap;overflow=hidden;rounded=0;" vertex="1" parent="1">
          <mxGeometry x="698" y="70" width="380" height="120" as="geometry" />
        </mxCell>
        <mxCell id="XmwUmY_RfwaG3Vd6OwZ8-13" value="标记请求" style="rounded=1;whiteSpace=wrap;html=1;" vertex="1" parent="1">
          <mxGeometry x="790" y="200" width="120" height="40" as="geometry" />
        </mxCell>
        <mxCell id="XmwUmY_RfwaG3Vd6OwZ8-14" value="是否进入缓存逻辑" style="rhombus;whiteSpace=wrap;html=1;" vertex="1" parent="1">
          <mxGeometry x="360" y="610" width="120" height="80" as="geometry" />
        </mxCell>
        <mxCell id="XmwUmY_RfwaG3Vd6OwZ8-15" value="YES/NO" style="rhombus;whiteSpace=wrap;html=1;" vertex="1" parent="1">
          <mxGeometry x="620" y="610" width="80" height="80" as="geometry" />
        </mxCell>
        <mxCell id="XmwUmY_RfwaG3Vd6OwZ8-16" value="&lt;h1&gt;是否更新请求数据&lt;/h1&gt;&lt;p&gt;&amp;nbsp;1. 没有缓存数据&lt;/p&gt;&lt;p&gt;&amp;nbsp;2. 两次请求的时间差大于设置的默认值&lt;/p&gt;&lt;p&gt;&amp;nbsp;3. 两次参数不一致&lt;/p&gt;" style="text;html=1;strokeColor=none;fillColor=none;spacing=5;spacingTop=-20;whiteSpace=wrap;overflow=hidden;rounded=0;" vertex="1" parent="1">
          <mxGeometry x="710" y="490" width="380" height="120" as="geometry" />
        </mxCell>
        <mxCell id="XmwUmY_RfwaG3Vd6OwZ8-17" value="成功" style="rounded=1;whiteSpace=wrap;html=1;" vertex="1" parent="1">
          <mxGeometry x="360" y="520" width="120" height="40" as="geometry" />
        </mxCell>
        <mxCell id="XmwUmY_RfwaG3Vd6OwZ8-18" value="" style="endArrow=classic;html=1;rounded=0;exitX=1;exitY=0.5;exitDx=0;exitDy=0;entryX=0;entryY=0.5;entryDx=0;entryDy=0;" edge="1" parent="1" source="XmwUmY_RfwaG3Vd6OwZ8-9" target="XmwUmY_RfwaG3Vd6OwZ8-13">
          <mxGeometry width="50" height="50" relative="1" as="geometry">
            <mxPoint x="600" y="370" as="sourcePoint" />
            <mxPoint x="650" y="320" as="targetPoint" />
          </mxGeometry>
        </mxCell>
        <mxCell id="XmwUmY_RfwaG3Vd6OwZ8-19" style="edgeStyle=orthogonalEdgeStyle;rounded=0;orthogonalLoop=1;jettySize=auto;html=1;exitX=0.5;exitY=1;exitDx=0;exitDy=0;" edge="1" parent="1" source="XmwUmY_RfwaG3Vd6OwZ8-13" target="XmwUmY_RfwaG3Vd6OwZ8-13">
          <mxGeometry relative="1" as="geometry" />
        </mxCell>
        <mxCell id="XmwUmY_RfwaG3Vd6OwZ8-20" value="" style="endArrow=classic;html=1;rounded=0;exitX=0.5;exitY=1;exitDx=0;exitDy=0;entryX=0.5;entryY=0;entryDx=0;entryDy=0;" edge="1" parent="1" source="XmwUmY_RfwaG3Vd6OwZ8-1" target="XmwUmY_RfwaG3Vd6OwZ8-6">
          <mxGeometry width="50" height="50" relative="1" as="geometry">
            <mxPoint x="600" y="380" as="sourcePoint" />
            <mxPoint x="650" y="330" as="targetPoint" />
          </mxGeometry>
        </mxCell>
        <mxCell id="XmwUmY_RfwaG3Vd6OwZ8-21" value="" style="endArrow=classic;html=1;rounded=0;exitX=0.5;exitY=1;exitDx=0;exitDy=0;entryX=0.5;entryY=0;entryDx=0;entryDy=0;" edge="1" parent="1" source="XmwUmY_RfwaG3Vd6OwZ8-6" target="XmwUmY_RfwaG3Vd6OwZ8-2">
          <mxGeometry width="50" height="50" relative="1" as="geometry">
            <mxPoint x="610" y="390" as="sourcePoint" />
            <mxPoint x="660" y="340" as="targetPoint" />
          </mxGeometry>
        </mxCell>
        <mxCell id="XmwUmY_RfwaG3Vd6OwZ8-22" value="" style="endArrow=classic;html=1;rounded=0;exitX=0.5;exitY=1;exitDx=0;exitDy=0;entryX=1;entryY=0.5;entryDx=0;entryDy=0;" edge="1" parent="1" source="XmwUmY_RfwaG3Vd6OwZ8-9" target="XmwUmY_RfwaG3Vd6OwZ8-2">
          <mxGeometry width="50" height="50" relative="1" as="geometry">
            <mxPoint x="620" y="400" as="sourcePoint" />
            <mxPoint x="670" y="350" as="targetPoint" />
            <Array as="points">
              <mxPoint x="660" y="340" />
            </Array>
          </mxGeometry>
        </mxCell>
        <mxCell id="XmwUmY_RfwaG3Vd6OwZ8-23" value="" style="endArrow=classic;html=1;rounded=0;entryX=1;entryY=0.5;entryDx=0;entryDy=0;" edge="1" parent="1" target="XmwUmY_RfwaG3Vd6OwZ8-2">
          <mxGeometry width="50" height="50" relative="1" as="geometry">
            <mxPoint x="850" y="240" as="sourcePoint" />
            <mxPoint x="850" y="350" as="targetPoint" />
            <Array as="points">
              <mxPoint x="850" y="340" />
            </Array>
          </mxGeometry>
        </mxCell>
        <mxCell id="XmwUmY_RfwaG3Vd6OwZ8-24" value="" style="endArrow=classic;html=1;rounded=0;exitX=0.5;exitY=1;exitDx=0;exitDy=0;dashed=1;" edge="1" parent="1" source="XmwUmY_RfwaG3Vd6OwZ8-2" target="XmwUmY_RfwaG3Vd6OwZ8-4">
          <mxGeometry width="50" height="50" relative="1" as="geometry">
            <mxPoint x="640" y="420" as="sourcePoint" />
            <mxPoint x="690" y="370" as="targetPoint" />
          </mxGeometry>
        </mxCell>
        <mxCell id="XmwUmY_RfwaG3Vd6OwZ8-26" value="NO" style="text;html=1;align=center;verticalAlign=middle;resizable=0;points=[];autosize=1;strokeColor=none;fillColor=none;" vertex="1" parent="1">
          <mxGeometry x="650" y="275" width="40" height="30" as="geometry" />
        </mxCell>
        <mxCell id="XmwUmY_RfwaG3Vd6OwZ8-27" value="YES" style="text;html=1;align=center;verticalAlign=middle;resizable=0;points=[];autosize=1;strokeColor=none;fillColor=none;" vertex="1" parent="1">
          <mxGeometry x="715" y="215" width="50" height="30" as="geometry" />
        </mxCell>
        <mxCell id="XmwUmY_RfwaG3Vd6OwZ8-28" value="YES" style="text;html=1;align=center;verticalAlign=middle;resizable=0;points=[];autosize=1;strokeColor=none;fillColor=none;" vertex="1" parent="1">
          <mxGeometry x="515" y="195" width="50" height="30" as="geometry" />
        </mxCell>
        <mxCell id="XmwUmY_RfwaG3Vd6OwZ8-29" value="NO" style="text;html=1;align=center;verticalAlign=middle;resizable=0;points=[];autosize=1;strokeColor=none;fillColor=none;" vertex="1" parent="1">
          <mxGeometry x="410" y="265" width="40" height="30" as="geometry" />
        </mxCell>
        <mxCell id="XmwUmY_RfwaG3Vd6OwZ8-30" value="" style="endArrow=classic;html=1;rounded=0;exitX=0.5;exitY=1;exitDx=0;exitDy=0;" edge="1" parent="1" source="XmwUmY_RfwaG3Vd6OwZ8-17" target="XmwUmY_RfwaG3Vd6OwZ8-14">
          <mxGeometry width="50" height="50" relative="1" as="geometry">
            <mxPoint x="650" y="430" as="sourcePoint" />
            <mxPoint x="700" y="380" as="targetPoint" />
          </mxGeometry>
        </mxCell>
        <mxCell id="XmwUmY_RfwaG3Vd6OwZ8-31" value="" style="endArrow=classic;html=1;rounded=0;exitX=0.5;exitY=1;exitDx=0;exitDy=0;entryX=0.5;entryY=0;entryDx=0;entryDy=0;" edge="1" parent="1" source="XmwUmY_RfwaG3Vd6OwZ8-14" target="XmwUmY_RfwaG3Vd6OwZ8-3">
          <mxGeometry width="50" height="50" relative="1" as="geometry">
            <mxPoint x="660" y="440" as="sourcePoint" />
            <mxPoint x="710" y="390" as="targetPoint" />
          </mxGeometry>
        </mxCell>
        <mxCell id="XmwUmY_RfwaG3Vd6OwZ8-32" value="" style="endArrow=classic;html=1;rounded=0;exitX=0.5;exitY=1;exitDx=0;exitDy=0;entryX=1;entryY=0.5;entryDx=0;entryDy=0;" edge="1" parent="1" source="XmwUmY_RfwaG3Vd6OwZ8-15" target="XmwUmY_RfwaG3Vd6OwZ8-3">
          <mxGeometry width="50" height="50" relative="1" as="geometry">
            <mxPoint x="670" y="450" as="sourcePoint" />
            <mxPoint x="720" y="400" as="targetPoint" />
            <Array as="points">
              <mxPoint x="660" y="780" />
            </Array>
          </mxGeometry>
        </mxCell>
        <mxCell id="XmwUmY_RfwaG3Vd6OwZ8-33" value="" style="endArrow=classic;html=1;rounded=0;exitX=0.5;exitY=1;exitDx=0;exitDy=0;" edge="1" parent="1" source="XmwUmY_RfwaG3Vd6OwZ8-4" target="XmwUmY_RfwaG3Vd6OwZ8-17">
          <mxGeometry width="50" height="50" relative="1" as="geometry">
            <mxPoint x="680" y="460" as="sourcePoint" />
            <mxPoint x="730" y="410" as="targetPoint" />
          </mxGeometry>
        </mxCell>
        <mxCell id="XmwUmY_RfwaG3Vd6OwZ8-34" value="" style="endArrow=classic;html=1;rounded=0;exitX=1;exitY=0.5;exitDx=0;exitDy=0;entryX=0;entryY=0.5;entryDx=0;entryDy=0;" edge="1" parent="1" source="XmwUmY_RfwaG3Vd6OwZ8-14" target="XmwUmY_RfwaG3Vd6OwZ8-15">
          <mxGeometry width="50" height="50" relative="1" as="geometry">
            <mxPoint x="680" y="460" as="sourcePoint" />
            <mxPoint x="730" y="410" as="targetPoint" />
          </mxGeometry>
        </mxCell>
        <mxCell id="XmwUmY_RfwaG3Vd6OwZ8-35" value="YES" style="text;html=1;align=center;verticalAlign=middle;resizable=0;points=[];autosize=1;strokeColor=none;fillColor=none;" vertex="1" parent="1">
          <mxGeometry x="515" y="645" width="50" height="30" as="geometry" />
        </mxCell>
        <mxCell id="XmwUmY_RfwaG3Vd6OwZ8-36" value="NO" style="text;html=1;align=center;verticalAlign=middle;resizable=0;points=[];autosize=1;strokeColor=none;fillColor=none;" vertex="1" parent="1">
          <mxGeometry x="410" y="705" width="40" height="30" as="geometry" />
        </mxCell>
        <mxCell id="XmwUmY_RfwaG3Vd6OwZ8-37" value="缓存/更新" style="rounded=1;whiteSpace=wrap;html=1;" vertex="1" parent="1">
          <mxGeometry x="780" y="630" width="120" height="40" as="geometry" />
        </mxCell>
        <mxCell id="XmwUmY_RfwaG3Vd6OwZ8-38" value="" style="endArrow=classic;html=1;rounded=0;exitX=0.5;exitY=1;exitDx=0;exitDy=0;entryX=1;entryY=0.5;entryDx=0;entryDy=0;" edge="1" parent="1" source="XmwUmY_RfwaG3Vd6OwZ8-37" target="XmwUmY_RfwaG3Vd6OwZ8-3">
          <mxGeometry width="50" height="50" relative="1" as="geometry">
            <mxPoint x="680" y="460" as="sourcePoint" />
            <mxPoint x="730" y="410" as="targetPoint" />
            <Array as="points">
              <mxPoint x="840" y="780" />
            </Array>
          </mxGeometry>
        </mxCell>
        <mxCell id="XmwUmY_RfwaG3Vd6OwZ8-39" value="" style="endArrow=classic;html=1;rounded=0;exitX=1;exitY=0.5;exitDx=0;exitDy=0;entryX=0;entryY=0.5;entryDx=0;entryDy=0;" edge="1" parent="1" source="XmwUmY_RfwaG3Vd6OwZ8-15" target="XmwUmY_RfwaG3Vd6OwZ8-37">
          <mxGeometry width="50" height="50" relative="1" as="geometry">
            <mxPoint x="690" y="470" as="sourcePoint" />
            <mxPoint x="740" y="420" as="targetPoint" />
          </mxGeometry>
        </mxCell>
        <mxCell id="XmwUmY_RfwaG3Vd6OwZ8-40" value="NO" style="text;html=1;align=center;verticalAlign=middle;resizable=0;points=[];autosize=1;strokeColor=none;fillColor=none;" vertex="1" parent="1">
          <mxGeometry x="650" y="705" width="40" height="30" as="geometry" />
        </mxCell>
        <mxCell id="XmwUmY_RfwaG3Vd6OwZ8-41" value="YES" style="text;html=1;align=center;verticalAlign=middle;resizable=0;points=[];autosize=1;strokeColor=none;fillColor=none;" vertex="1" parent="1">
          <mxGeometry x="705" y="645" width="50" height="30" as="geometry" />
        </mxCell>
      </root>
    </mxGraphModel>
  </diagram>
</mxfile>
